<?xml version="1.0" encoding="utf-8"?>
<!-- Generator: Adobe Illustrator 23.0.4, SVG Export Plug-In . SVG Version: 6.00 Build 0)  -->
<svg version="1.1" id="레이어_1" xmlns="http://www.w3.org/2000/svg" xmlns:xlink="http://www.w3.org/1999/xlink" x="0px"
	 y="0px" viewBox="0 0 1311 242" style="enable-background:new 0 0 1311 242;" xml:space="preserve">
<style type="text/css">
	.st0{fill:#111A3D;}
</style>
<title>metamask-logo-horizontal-beta</title>
<desc>Created with Sketch.</desc>
<g>
	<path class="st0" d="M356,171.1c-9.3-5.1-16.6-12-21.8-20.9c-5.3-8.9-7.9-19-7.9-30.2c0-11.2,2.7-21.2,8-30.2
		c5.3-8.9,12.6-15.9,21.9-20.9s19.7-7.6,31.2-7.6c9.3,0,17.9,1.6,25.6,4.9c7.7,3.3,14.2,8,19.6,14.2l-13.7,12.9
		c-8.3-8.9-18.4-13.4-30.5-13.4c-7.8,0-14.8,1.7-21,5.1s-11,8.2-14.5,14.3c-3.5,6.1-5.2,13-5.2,20.7c0,7.7,1.7,14.6,5.2,20.7
		c3.5,6.1,8.3,10.8,14.5,14.3c6.2,3.4,13.2,5.1,21,5.1c12.1,0,22.2-4.5,30.5-13.5l13.7,13c-5.3,6.2-11.9,10.9-19.6,14.2
		c-7.8,3.3-16.3,4.9-25.7,4.9C375.7,178.7,365.3,176.2,356,171.1z"/>
	<path class="st0" d="M529.1,67.9c7.3,3.3,13,7.9,16.9,14c3.9,6.1,5.9,13.3,5.9,21.7c0,8.3-2,15.5-5.9,21.6
		c-3.9,6.1-9.5,10.8-16.9,14.1c-7.3,3.3-15.9,4.9-25.8,4.9h-25.8v32.9h-21.2V63h46.9C513.2,63,521.8,64.6,529.1,67.9z M523.3,120.3
		c4.8-3.9,7.2-9.5,7.2-16.8c0-7.3-2.4-12.9-7.2-16.8c-4.8-3.9-11.8-5.9-21-5.9h-24.8v45.3h24.8C511.5,126.2,518.5,124.3,523.3,120.3
		z"/>
	<path class="st0" d="M644.7,177.1l-31-43.4l-30.6,43.4H559l42.4-58.2L561.3,63h24l29.2,40.6L643.2,63h23l-39.9,55.1l42.9,59H644.7z
		"/>
</g>
<path class="st0" d="M248.7,143.2c4.7,9.2,7.4,19.7,7.4,30.8c0,37.4-30.3,67.8-67.8,67.8c-11.1,0-21.6-2.7-30.8-7.4
	c-2.9-1.5-5.7-3.2-8.4-5.1c2.1-2.5,4-5.1,5.7-7.8c1.8-2.7,3.4-5.5,4.8-8.4c1.5-3,2.8-6,4-9.2c2.5,2.1,5.3,3.9,8.4,5.3
	c4.9,2.3,10.5,3.6,16.3,3.6c21.4,0,38.7-17.3,38.7-38.7c0-5.8-1.3-11.3-3.6-16.3c-1.4-3-3.2-5.8-5.3-8.4c-2.4-2.9-5.1-5.4-8.2-7.5
	c3.7-1.1,7.2-2.4,10.6-4c3.1-1.4,6.1-3,8.9-4.8c2.8-1.7,5.4-3.7,7.9-5.7c2.2,2.3,4.3,4.8,6.1,7.5
	C245.5,137.5,247.2,140.3,248.7,143.2z M81.8,135.3h9.7h9.7h9.7v-9.7v-9.7v-9.7h-9.7h-9.7h-9.7h0c-8,0-15.5-2.4-21.6-6.6
	c-3.1-2.1-5.9-4.6-8.2-7.5c-2.1-2.5-3.9-5.3-5.3-8.4c-2.3-4.9-3.6-10.5-3.6-16.3c0-21.4,17.3-38.7,38.7-38.7
	c5.8,0,11.3,1.3,16.3,3.6c3,1.4,5.8,3.2,8.4,5.3c1.1-3.1,2.5-6.2,4-9.2c1.5-2.9,3.1-5.7,4.9-8.4c1.8-2.7,3.7-5.3,5.7-7.8
	c-2.6-1.9-5.4-3.6-8.4-5.1c-9.2-4.7-19.7-7.4-30.8-7.4c-37.4,0-67.8,30.3-67.8,67.8c0,11.1,2.7,21.6,7.4,30.8
	c1.5,2.9,3.2,5.7,5.1,8.4c1.9,2.6,3.9,5.1,6.1,7.5c2.2,2.4,4.7,4.6,7.2,6.6c2.7,2.1,5.5,4,8.5,5.7c3.3,1.9,6.9,3.5,10.5,4.8
	C66.1,133.9,73.8,135.3,81.8,135.3 M149.6,174v-9.7v-9.7V145v-9.7v-9.7v-9.7v-9.7v-9.7v-9.7v-9.7v-9.7h0c0-8,2.4-15.5,6.6-21.6
	c2.1-3.1,4.6-5.9,7.5-8.2c2.5-2.1,5.3-3.9,8.4-5.3c4.9-2.3,10.5-3.6,16.3-3.6c21.4,0,38.7,17.3,38.7,38.7c0,5.8-1.3,11.3-3.6,16.3
	c-1.4,3-3.2,5.8-5.3,8.4c-2.4,2.9-5.1,5.4-8.2,7.5c-3.6,2.4-7.6,4.3-12,5.4c-3.1,0.8-6.3,1.2-9.7,1.2h-9.7H169h-9.7v9.7v9.7v9.7h9.7
	h9.7h9.7v0c3.3,0,6.5-0.2,9.7-0.7c4.6-0.6,9-1.8,13.2-3.3c3.7-1.3,7.2-2.9,10.6-4.8c3-1.7,5.8-3.6,8.5-5.7c2.6-2,5-4.2,7.2-6.6
	c2.2-2.3,4.3-4.8,6.1-7.5c1.9-2.7,3.6-5.4,5.1-8.4c4.7-9.2,7.4-19.7,7.4-30.8c0-37.4-30.3-67.8-67.8-67.8c-11.1,0-21.6,2.7-30.8,7.4
	c-2.9,1.5-5.7,3.2-8.4,5.1c-2.6,1.9-5.1,3.9-7.5,6.1c-2.4,2.2-4.6,4.7-6.6,7.2c-2.1,2.7-4,5.5-5.7,8.5c-1.9,3.3-3.5,6.9-4.8,10.6
	c-2.6,7.1-4,14.8-4,22.9h0v9.7v9.7v9.7v9.7v9.7v9.7v9.7v9.7v9.7v9.7v9.7h0c0,8-2.4,15.5-6.6,21.6c-2.1,3.1-4.6,5.9-7.5,8.2
	c-2.5,2.1-5.3,3.9-8.4,5.3c-4.9,2.3-10.5,3.6-16.3,3.6c-21.4,0-38.7-17.3-38.7-38.7c0-5.8,1.3-11.3,3.6-16.3c1.4-3,3.2-5.8,5.3-8.4
	c2.4-2.9,5.1-5.4,8.2-7.5c-3.7-1.1-7.2-2.4-10.6-4c-3.1-1.4-6.1-3-8.9-4.8c-2.8-1.7-5.4-3.7-7.9-5.7c-2.2,2.3-4.3,4.8-6.1,7.5
	c-1.9,2.7-3.6,5.4-5.1,8.4c-4.7,9.2-7.4,19.7-7.4,30.8c0,37.4,30.3,67.8,67.8,67.8c11.1,0,21.6-2.7,30.8-7.4
	c2.9-1.5,5.7-3.2,8.4-5.1c2.6-1.9,5.1-3.9,7.5-6.1c2.4-2.2,4.6-4.7,6.6-7.2c2.1-2.7,4-5.5,5.7-8.5c1.9-3.3,3.5-6.9,4.8-10.6
	C148.2,189.7,149.6,182,149.6,174L149.6,174z"/>
<g>
	<path class="st0" d="M744.4,137.5c3.2,1.8,5.7,4.3,7.5,7.5c1.8,3.2,2.7,7,2.7,11.2c0,4.2-0.9,8-2.7,11.2c-1.8,3.3-4.3,5.8-7.5,7.5
		c-3.2,1.8-6.8,2.7-10.9,2.7c-2.9,0-5.5-0.5-7.8-1.5c-2.4-1-4.4-2.5-6-4.5v5.4h-9.3v-58h9.8v21.3c1.7-1.8,3.6-3.2,5.9-4.1
		s4.8-1.4,7.5-1.4C737.6,134.9,741.2,135.8,744.4,137.5z M741.3,165.7c2.3-2.4,3.5-5.5,3.5-9.4c0-3.9-1.2-7.1-3.5-9.5
		c-2.3-2.4-5.3-3.6-8.9-3.6c-2.3,0-4.5,0.5-6.3,1.6c-1.9,1.1-3.4,2.6-4.5,4.6c-1.1,2-1.6,4.3-1.6,6.9s0.5,4.9,1.6,6.9
		c1.1,2,2.6,3.5,4.5,4.6c1.9,1.1,4,1.6,6.3,1.6C736,169.3,739,168.1,741.3,165.7z"/>
	<path class="st0" d="M804.4,135.4l-19.5,45.1c-1.8,4.5-4,7.7-6.6,9.6c-2.6,1.8-5.8,2.8-9.5,2.8c-2.1,0-4.1-0.3-6.2-1
		c-2-0.7-3.7-1.6-5-2.8l3.9-7.2c0.9,0.9,2,1.6,3.3,2.1c1.3,0.5,2.6,0.8,3.9,0.8c1.7,0,3.1-0.4,4.3-1.3c1.1-0.9,2.1-2.4,3.1-4.5
		l0.7-1.6l-18.2-41.9h10.2l13.1,30.8l13.2-30.8H804.4z"/>
	<path class="st0" d="M883.9,177.1l-0.1-36.2l-18,30h-4.5l-18-29.5v35.8h-9.7v-54.7h8.4l21.7,36.2l21.3-36.2h8.4l0.1,54.7H883.9z"/>
	<path class="st0" d="M951.2,168.5v8.5h-41v-54.7h39.9v8.5h-29.8v14.2h26.4v8.4h-26.4v15.1H951.2z"/>
	<path class="st0" d="M977.2,131h-18.1v-8.6h46.4v8.6h-18.1v46.1h-10.2V131z"/>
	<path class="st0" d="M1045.2,164.4h-27.3l-5.4,12.7H1002l24.6-54.7h10l24.7,54.7h-10.6L1045.2,164.4z M1041.8,156.4l-10.3-23.9
		l-10.2,23.9H1041.8z"/>
	<path class="st0" d="M1121.1,177.1l-0.1-36.2l-18,30h-4.5l-18-29.5v35.8h-9.7v-54.7h8.4l21.7,36.2l21.3-36.2h8.4l0.1,54.7H1121.1z"
		/>
	<path class="st0" d="M1183.6,164.4h-27.3l-5.4,12.7h-10.5l24.6-54.7h10l24.7,54.7h-10.6L1183.6,164.4z M1180.2,156.4l-10.3-23.9
		l-10.2,23.9H1180.2z"/>
	<path class="st0" d="M1215.4,176c-3.9-1.2-7-2.8-9.3-4.8l3.5-7.9c2.2,1.8,5,3.2,8.2,4.3c3.3,1.1,6.5,1.7,9.8,1.7
		c4.1,0,7.1-0.7,9.1-2c2-1.3,3-3,3-5.2c0-1.6-0.6-2.9-1.7-3.9c-1.1-1-2.5-1.8-4.3-2.4c-1.7-0.6-4.1-1.2-7-2c-4.2-1-7.5-2-10.1-3
		c-2.6-1-4.8-2.5-6.6-4.6c-1.8-2.1-2.8-5-2.8-8.6c0-3,0.8-5.8,2.5-8.2c1.6-2.5,4.1-4.4,7.4-5.9c3.3-1.5,7.4-2.2,12.1-2.2
		c3.3,0,6.6,0.4,9.8,1.2c3.2,0.8,6,2,8.4,3.6l-3.2,7.9c-2.4-1.4-4.9-2.5-7.5-3.2c-2.6-0.7-5.1-1.1-7.6-1.1c-4,0-7,0.7-8.9,2
		c-2,1.4-2.9,3.2-2.9,5.4c0,1.6,0.6,2.8,1.7,3.8c1.1,1,2.5,1.8,4.3,2.3c1.7,0.6,4.1,1.2,7,2c4.1,0.9,7.4,1.9,10,2.9
		c2.6,1,4.8,2.6,6.7,4.6c1.8,2.1,2.8,4.9,2.8,8.4c0,3-0.8,5.8-2.5,8.2c-1.6,2.4-4.1,4.4-7.5,5.9c-3.3,1.5-7.4,2.2-12.2,2.2
		C1223.5,177.8,1219.4,177.2,1215.4,176z"/>
	<path class="st0" d="M1279.8,154.2l-8.7,8.9v14H1261v-54.7h10.2v28l27-28h11.4l-23,24.4l24.4,30.2h-11.9L1279.8,154.2z"/>
</g>
</svg>
