<?xml version="1.0" encoding="utf-8"?>
<!-- Generator: Adobe Illustrator 23.0.4, SVG Export Plug-In . SVG Version: 6.00 Build 0)  -->
<svg version="1.1" id="레이어_1" xmlns="http://www.w3.org/2000/svg" xmlns:xlink="http://www.w3.org/1999/xlink" x="0px"
	 y="0px" viewBox="0 0 35 33" style="enable-background:new 0 0 35 33;" xml:space="preserve">
<style type="text/css">
	.st0{fill:#111A3D;}
</style>
<g>
	<path class="st0" d="M32,19.4c0.6,1.2,0.9,2.5,0.9,4c0,4.8-3.9,8.7-8.7,8.7c-1.4,0-2.8-0.3-4-0.9c-0.4-0.2-0.7-0.4-1.1-0.7
		c0.3-0.3,0.5-0.7,0.7-1c0.2-0.3,0.4-0.7,0.6-1.1c0.2-0.4,0.4-0.8,0.5-1.2c0.3,0.3,0.7,0.5,1.1,0.7c0.6,0.3,1.3,0.5,2.1,0.5
		c2.7,0,5-2.2,5-5c0-0.7-0.2-1.5-0.5-2.1c-0.2-0.4-0.4-0.7-0.7-1.1c-0.3-0.4-0.7-0.7-1.1-1c0.5-0.1,0.9-0.3,1.4-0.5
		c0.4-0.2,0.8-0.4,1.1-0.6c0.4-0.2,0.7-0.5,1-0.7c0.3,0.3,0.5,0.6,0.8,1C31.6,18.7,31.8,19.1,32,19.4z M10.6,18.4h1.2h1.2h1.2v-1.2
		v-1.2v-1.2h-1.2h-1.2h-1.2h0c-1,0-2-0.3-2.8-0.8c-0.4-0.3-0.8-0.6-1.1-1c-0.3-0.3-0.5-0.7-0.7-1.1c-0.3-0.6-0.5-1.3-0.5-2.1
		c0-2.7,2.2-5,5-5c0.7,0,1.5,0.2,2.1,0.5c0.4,0.2,0.7,0.4,1.1,0.7c0.1-0.4,0.3-0.8,0.5-1.2c0.2-0.4,0.4-0.7,0.6-1.1
		c0.2-0.3,0.5-0.7,0.7-1c-0.3-0.2-0.7-0.5-1.1-0.7C13.4,1.3,12,1,10.6,1C5.8,1,1.9,4.9,1.9,9.7c0,1.4,0.3,2.8,0.9,4
		C3,14,3.3,14.4,3.5,14.7c0.2,0.3,0.5,0.7,0.8,1c0.3,0.3,0.6,0.6,0.9,0.8c0.3,0.3,0.7,0.5,1.1,0.7c0.4,0.2,0.9,0.5,1.4,0.6
		C8.6,18.2,9.6,18.4,10.6,18.4 M19.3,23.4v-1.2v-1.2v-1.2v-1.2v-1.2v-1.2v-1.2v-1.2v-1.2V11V9.7h0c0-1,0.3-2,0.8-2.8
		c0.3-0.4,0.6-0.8,1-1.1c0.3-0.3,0.7-0.5,1.1-0.7c0.6-0.3,1.3-0.5,2.1-0.5c2.7,0,5,2.2,5,5c0,0.7-0.2,1.5-0.5,2.1
		c-0.2,0.4-0.4,0.7-0.7,1.1c-0.3,0.4-0.7,0.7-1.1,1c-0.5,0.3-1,0.5-1.5,0.7c-0.4,0.1-0.8,0.2-1.2,0.2H23h-1.2h-1.2v1.2v1.2v1.2h1.2
		H23h1.2v0c0.4,0,0.8,0,1.2-0.1c0.6-0.1,1.2-0.2,1.7-0.4c0.5-0.2,0.9-0.4,1.4-0.6c0.4-0.2,0.7-0.5,1.1-0.7c0.3-0.3,0.6-0.5,0.9-0.8
		c0.3-0.3,0.5-0.6,0.8-1c0.2-0.3,0.5-0.7,0.7-1.1c0.6-1.2,0.9-2.5,0.9-4C33,4.9,29.1,1,24.3,1c-1.4,0-2.8,0.3-4,0.9
		c-0.4,0.2-0.7,0.4-1.1,0.7c-0.3,0.2-0.7,0.5-1,0.8C18,3.7,17.7,4,17.4,4.3c-0.3,0.3-0.5,0.7-0.7,1.1c-0.2,0.4-0.5,0.9-0.6,1.4
		c-0.3,0.9-0.5,1.9-0.5,2.9h0V11v1.2v1.2v1.2v1.2v1.2v1.2v1.2v1.2v1.2v1.2h0c0,1-0.3,2-0.8,2.8c-0.3,0.4-0.6,0.8-1,1.1
		c-0.3,0.3-0.7,0.5-1.1,0.7c-0.6,0.3-1.3,0.5-2.1,0.5c-2.7,0-5-2.2-5-5c0-0.7,0.2-1.5,0.5-2.1c0.2-0.4,0.4-0.7,0.7-1.1
		c0.3-0.4,0.7-0.7,1.1-1c-0.5-0.1-0.9-0.3-1.4-0.5c-0.4-0.2-0.8-0.4-1.1-0.6c-0.4-0.2-0.7-0.5-1-0.7c-0.3,0.3-0.5,0.6-0.8,1
		c-0.2,0.3-0.5,0.7-0.7,1.1c-0.6,1.2-0.9,2.5-0.9,4c0,4.8,3.9,8.7,8.7,8.7c1.4,0,2.8-0.3,4-0.9c0.4-0.2,0.7-0.4,1.1-0.7
		c0.3-0.2,0.7-0.5,1-0.8c0.3-0.3,0.6-0.6,0.8-0.9c0.3-0.3,0.5-0.7,0.7-1.1c0.2-0.4,0.5-0.9,0.6-1.4C19.1,25.4,19.3,24.4,19.3,23.4
		L19.3,23.4z"/>
</g>
</svg>
