<svg xmlns="http://www.w3.org/2000/svg" viewBox="0 0 50 73"><defs><style>.cls-1{fill:#111a3d;}</style></defs><title>cpx stacked logo</title><g id="레이어_2" data-name="레이어 2"><g id="레이어_1-2" data-name="레이어 1"><path class="cls-1" d="M48.47,29.64A13.85,13.85,0,0,1,50,36,14,14,0,0,1,36,50a13.85,13.85,0,0,1-6.36-1.53,15,15,0,0,1-1.73-1,18.6,18.6,0,0,0,1.18-1.62,16.67,16.67,0,0,0,1-1.74,15.86,15.86,0,0,0,.82-1.89,8.36,8.36,0,0,0,1.73,1.08A7.87,7.87,0,0,0,36,44a8,8,0,0,0,8-8,7.87,7.87,0,0,0-.74-3.36,7.79,7.79,0,0,0-2.79-3.27,16.55,16.55,0,0,0,2.2-.82,17.29,17.29,0,0,0,1.85-1,15.93,15.93,0,0,0,1.64-1.19,14.54,14.54,0,0,1,1.27,1.55A13.67,13.67,0,0,1,48.47,29.64ZM14,28h6V22H14a7.88,7.88,0,0,1-4.47-1.37,7.79,7.79,0,0,1-2.79-3.27A7.87,7.87,0,0,1,6,14a8,8,0,0,1,8-8,7.87,7.87,0,0,1,3.36.74,8.36,8.36,0,0,1,1.73,1.08,18.12,18.12,0,0,1,1.82-3.63,18.6,18.6,0,0,1,1.18-1.62,15,15,0,0,0-1.73-1A13.85,13.85,0,0,0,14,0,14,14,0,0,0,0,14a13.85,13.85,0,0,0,1.53,6.36,13.67,13.67,0,0,0,1,1.73,14.54,14.54,0,0,0,1.27,1.55A14.85,14.85,0,0,0,5.34,25,13.18,13.18,0,0,0,7.1,26.18a13,13,0,0,0,2.18,1A13.89,13.89,0,0,0,14,28m14,8V14h0a7.88,7.88,0,0,1,1.37-4.47,7.79,7.79,0,0,1,3.27-2.79A7.87,7.87,0,0,1,36,6a8,8,0,0,1,8,8,7.87,7.87,0,0,1-.74,3.36,7.79,7.79,0,0,1-2.79,3.27A7.79,7.79,0,0,1,38,21.75,8.24,8.24,0,0,1,36,22H30v6h6a14.6,14.6,0,0,0,2-.14,13.71,13.71,0,0,0,2.72-.68,13,13,0,0,0,2.18-1A13.18,13.18,0,0,0,44.66,25a14.85,14.85,0,0,0,1.5-1.36,14.54,14.54,0,0,0,1.27-1.55,13.67,13.67,0,0,0,1-1.73A13.85,13.85,0,0,0,50,14,14,14,0,0,0,36,0a13.85,13.85,0,0,0-6.36,1.53,15,15,0,0,0-1.73,1,15.87,15.87,0,0,0-1.55,1.27A14.85,14.85,0,0,0,25,5.34,13.18,13.18,0,0,0,23.82,7.1a13,13,0,0,0-1,2.18A13.89,13.89,0,0,0,22,14h0V36h0a7.88,7.88,0,0,1-1.37,4.47,7.79,7.79,0,0,1-3.27,2.79A7.87,7.87,0,0,1,14,44a8,8,0,0,1-8-8,7.87,7.87,0,0,1,.74-3.36,7.79,7.79,0,0,1,2.79-3.27,16.55,16.55,0,0,1-2.2-.82,17.29,17.29,0,0,1-1.85-1,15.93,15.93,0,0,1-1.64-1.19,14.54,14.54,0,0,0-1.27,1.55,13.67,13.67,0,0,0-1,1.73A13.85,13.85,0,0,0,0,36,14,14,0,0,0,14,50a13.85,13.85,0,0,0,6.36-1.53,15,15,0,0,0,1.73-1,15.87,15.87,0,0,0,1.55-1.27A14.85,14.85,0,0,0,25,44.66a13.18,13.18,0,0,0,1.18-1.76,13,13,0,0,0,1-2.18A13.89,13.89,0,0,0,28,36Z"/><path class="cls-1" d="M8.94,72.14a6.31,6.31,0,0,1-2.48-2.38,7,7,0,0,1,0-6.85A6.46,6.46,0,0,1,9,60.52a7.3,7.3,0,0,1,3.54-.86,7.44,7.44,0,0,1,2.91.56,5.89,5.89,0,0,1,2.22,1.61l-1.55,1.46a4.55,4.55,0,0,0-3.47-1.51,4.89,4.89,0,0,0-2.39.58A4.19,4.19,0,0,0,8.58,64a4.9,4.9,0,0,0,0,4.7,4.15,4.15,0,0,0,1.64,1.63,5,5,0,0,0,2.39.58,4.51,4.51,0,0,0,3.47-1.54l1.55,1.48a5.82,5.82,0,0,1-2.23,1.61,7.45,7.45,0,0,1-2.92.56A7.33,7.33,0,0,1,8.94,72.14Z"/><path class="cls-1" d="M28.94,60.4A4.26,4.26,0,0,1,30.85,62a4.4,4.4,0,0,1,.67,2.46,4.45,4.45,0,0,1-.67,2.46,4.26,4.26,0,0,1-1.91,1.6,7.21,7.21,0,0,1-2.94.55H23.08v3.74H20.67v-13H26A7.21,7.21,0,0,1,28.94,60.4Zm-.66,6a2.63,2.63,0,0,0,0-3.82,3.72,3.72,0,0,0-2.39-.66H23.08V67h2.81A3.72,3.72,0,0,0,28.28,66.37Z"/><path class="cls-1" d="M42.45,72.81l-3.52-4.92-3.48,4.92H32.71l4.81-6.61L33,59.85h2.72L39,64.46l3.28-4.61h2.61l-4.53,6.26,4.87,6.7Z"/></g></g></svg>